<svg  width="64" height="64"  viewBox="0 0 240 240" xmlns="http://www.w3.org/2000/svg">
  <circle style="fill: #727272;" cx="120" cy="120" r="100"></circle>
  <circle style="fill: #ffffff;" cx="120" cy="120" r="95"></circle>
  <g fill="#3F51B5" transform="scale(5, 5) translate(5, 21)">
    <!-- search -->
    <path d="M15.5 14h-.79l-.28-.27C15.41 12.59 16 11.11 16 9.5 16 5.91 13.09 3 9.5 3S3 5.91 3 9.5 5.91 16 9.5 16c1.61 0 3.09-.59 4.23-1.57l.27.28v.79l5 4.99L20.49 19l-4.99-5zm-6 0C7.01 14 5 11.99 5 9.5S7.01 5 9.5 5 14 7.01 14 9.5 11.99 14 9.5 14z"/><path d="M0 0h24v24H0z" fill="none"/>
  </g>
  <g fill="#009688" transform="scale(5, 5) translate(18, 6)">
    <!-- info -->
    <path d="M0 0h24v24H0z" fill="none"/><path d="M12 2C6.48 2 2 6.48 2 12s4.48 10 10 10 10-4.48 10-10S17.52 2 12 2zm1 15h-2v-6h2v6zm0-8h-2V7h2v2z"/>
  </g>
  <g fill="#F44336" transform="scale(6, 6) translate(13, 13)">
    <!-- favorite -->
    <path d="M0 0h24v24H0z" fill="none"/><path d="M12 21.35l-1.45-1.32C5.4 15.36 2 12.28 2 8.5 2 5.42 4.42 3 7.5 3c1.74 0 3.41.81 4.5 2.09C13.09 3.81 14.76 3 16.5 3 19.58 3 22 5.42 22 8.5c0 3.78-3.4 6.86-8.55 11.54L12 21.35z"/>
  </g>
  <g fill="#2196F3" transform="scale(7, 7) translate(2.2, 1.3)">
    <!-- home -->
    <path d="M10 20v-6h4v6h5v-8h3L12 3 2 12h3v8z"/><path d="M0 0h24v24H0z" fill="none"/>
  </g>
</svg>